<?xml version="1.0" encoding="UTF-8" standalone="no"?>
<svg
   viewBox="0 0 1024 1024"
   width="1024"
   height="1024"
   version="1.1"
   id="svg10"
   sodipodi:docname="icon.svg"
   inkscape:version="1.4.3 (0d15f75, 2025-12-25)"
   inkscape:export-filename="icon.png"
   inkscape:export-xdpi="96"
   inkscape:export-ydpi="96"
   xmlns:inkscape="http://www.inkscape.org/namespaces/inkscape"
   xmlns:sodipodi="http://sodipodi.sourceforge.net/DTD/sodipodi-0.dtd"
   xmlns:xlink="http://www.w3.org/1999/xlink"
   xmlns="http://www.w3.org/2000/svg"
   xmlns:svg="http://www.w3.org/2000/svg">
  <defs
     id="defs10">
    <linearGradient
       id="linearGradient32"
       inkscape:collect="always">
      <stop
         style="stop-color:#de00de;stop-opacity:1;"
         offset="0"
         id="stop33" />
      <stop
         style="stop-color:#c800c8;stop-opacity:0.53797466;"
         offset="1"
         id="stop34" />
    </linearGradient>
    <linearGradient
       inkscape:collect="always"
       xlink:href="#linearGradient32"
       id="linearGradient34"
       x1="112"
       y1="512"
       x2="912"
       y2="512"
       gradientUnits="userSpaceOnUse"
       gradientTransform="matrix(1.2778182,0,0,1.2792729,-141.66109,-142.98764)" />
  </defs>
  <sodipodi:namedview
     id="namedview10"
     pagecolor="#ffffff"
     bordercolor="#000000"
     borderopacity="0.25"
     inkscape:showpageshadow="2"
     inkscape:pageopacity="0.0"
     inkscape:pagecheckerboard="0"
     inkscape:deskcolor="#d1d1d1"
     inkscape:zoom="0.859375"
     inkscape:cx="513.16364"
     inkscape:cy="513.74545"
     inkscape:window-width="2204"
     inkscape:window-height="1186"
     inkscape:window-x="2240"
     inkscape:window-y="30"
     inkscape:window-maximized="0"
     inkscape:current-layer="svg10" />
  <rect
     x="1.4545455"
     y="0.29091033"
     width="1022.2546"
     height="1023.4182"
     rx="230.00728"
     ry="230.2691"
     fill="#7B32A8"
     id="rect1"
     style="fill:url(#linearGradient34);stroke-width:1.27856" />
  <path
     fill-rule="evenodd"
     clip-rule="evenodd"
     d="M 101.44685,741.12671 C 25.408764,659.14183 46.316242,514.58357 167.07489,485.52099 210.39726,624.64804 387.44441,673.6483 552.71606,673.6483 c 165.19521,0 294.40857,-58.06558 319.72911,-169.21231 116.82621,24.19732 179.76713,132.86177 91.83339,235.70774 -166.74635,195.06776 -711.52019,164.13853 -862.83171,0.98298 z M 550.54228,614.89763 c -139.69989,0 -315.29421,-59.53511 -315.29421,-162.74846 0,-129.63477 259.93423,-133.84472 236.91854,-290.14917 106.35061,16.3533 157.99665,63.01029 157.99665,136.75398 0,80.61464 -71.04606,110.29283 -71.04606,110.29283 l 31.55781,39.12078 c 0,0 83.57524,-48.06695 109.50749,-61.09396 68.75217,8.47947 107.74882,42.89387 107.74882,97.5041 0,79.77067 -141.40393,130.33975 -257.38904,130.3199 z"
     fill="#000000"
     id="path1"
     style="fill:#ffffff;stroke-width:10.4144" />
  <path
     style="fill:#000000;fill-opacity:0.935897;stroke-width:1.85315"
     d="m 427.77094,724.80762 c -1.03559,-0.36683 -5.07839,-1.18505 -8.98401,-1.81824 -8.52482,-1.38206 -19.04703,-9.86917 -24.07752,-19.42068 -3.41458,-6.48333 -3.65486,-11.19348 -3.65486,-71.64105 0,-41.28024 0.72496,-66.5601 2.00268,-69.83591 2.35486,-6.03723 10.025,-14.36451 17.24108,-18.71819 5.09679,-3.075 5.12648,-3.21565 6.01563,-28.49492 0.56136,-15.96043 2.04883,-29.1338 4.00122,-35.43596 11.5476,-37.27421 44.82055,-65.48363 84.23962,-71.41991 40.45519,-6.09229 83.45757,14.57275 103.60249,49.78689 10.08976,17.63724 12.70668,28.51119 13.70752,56.95849 l 0.88993,25.29416 5.89237,3.88783 c 3.24079,2.13832 8.5129,7.04075 11.7158,10.89429 l 5.82347,7.00643 0.53684,67.26362 c 0.50758,63.6024 0.33761,67.63879 -3.12264,74.156 -4.39774,8.28296 -12.31328,15.82846 -20.0089,19.07364 -4.35803,1.83771 -27.1595,2.46747 -99.79326,2.75624 -51.77951,0.2058 -94.99187,0.0744 -96.02746,-0.29273 z m 121.4465,-38.32172 c 0,-0.48321 -2.06744,-13.08145 -4.59429,-27.99618 l -4.59427,-27.11767 4.59427,-8.79039 c 5.72191,-10.94797 5.80131,-18.15466 0.31087,-28.21181 -5.20356,-9.53165 -14.19108,-14.61406 -25.84285,-14.61406 -11.65176,0 -20.63929,5.08241 -25.84283,14.61406 -5.52718,10.12444 -5.41144,17.44129 0.4447,28.10999 l 4.72816,8.61369 -3.78889,22.20782 c -2.08391,12.21436 -4.24997,24.87533 -4.81348,28.1355 l -1.02455,5.92759 h 30.21157 c 16.61637,0 30.21159,-0.39537 30.21159,-0.87854 z m 28.24338,-170.24081 c 0,-26.64194 -2.68467,-35.19088 -15.22504,-48.48198 -12.38369,-13.12504 -24.40912,-18.19695 -43.14461,-18.19695 -18.7355,0 -30.76091,5.07191 -43.14461,18.19695 -12.54037,13.2911 -15.22504,21.84004 -15.22504,48.48198 v 21.56159 h 58.36965 58.36965 z"
     id="path34" />
</svg>
